<?xml version="1.0" standalone="no"?><!DOCTYPE svg PUBLIC "-//W3C//DTD SVG 1.1//EN" "http://www.w3.org/Graphics/SVG/1.1/DTD/svg11.dtd"><svg t="1640270295969" class="icon" viewBox="0 0 1024 1024" version="1.1" xmlns="http://www.w3.org/2000/svg" p-id="1727" xmlns:xlink="http://www.w3.org/1999/xlink" width="200" height="200"><defs><style type="text/css"></style></defs><path d="M693.404039 3.92097C548.879464 3.92097 431.705072 45.32664 431.705072 96.412901L431.705072 251.961138C431.705072 254.861206 432.186764 257.73294 432.982972 260.566422 445.727973 305.625866 557.423828 340.867298 693.404039 340.867298 829.3885 340.867298 941.084355 305.625866 953.829356 260.566422 954.625564 257.73294 955.107256 254.861206 955.107256 251.961138L955.107256 96.412901C955.107256 45.32664 837.938531 3.92097 693.404039 3.92097L693.404039 3.92097ZM908.421393 108.67621C897.386397 116.694964 881.01029 124.409118 861.059744 130.98988 815.879876 145.898244 756.337088 154.111092 693.404039 154.111092 630.475241 154.111092 570.932453 145.898244 525.752585 130.98988 505.802039 124.409118 489.425931 116.694964 478.390936 108.67621 469.884823 102.500637 467.013089 97.867894 466.537065 96.412901 467.013089 94.962158 469.884823 90.330832 478.390936 84.149592 489.425931 76.135088 505.802039 68.420934 525.752585 61.835922 570.932453 46.92614 630.475241 38.713293 693.404039 38.713293 756.337088 38.713293 815.879876 46.92614 861.065411 61.835922 881.01029 68.420934 897.386397 76.135088 908.421393 84.149592 916.927505 90.330832 919.799239 94.962158 920.275265 96.412901 919.799239 97.862227 916.927505 102.500637 908.421393 108.67621L908.421393 108.67621ZM812.709209 348.785463C776.902499 355.282637 736.426211 359.029917 693.408289 359.029917 650.386117 359.029917 609.909829 355.282637 574.108787 348.785463 489.625691 333.450658 431.705072 308.193001 431.705072 272.309787L431.705072 333.34582C400.220839 328.602571 365.565938 325.974517 329.179781 325.974517 184.649539 325.974517 67.475148 367.380188 67.475148 418.466448L67.475148 574.020351C67.475148 576.920421 67.956839 579.786487 68.753048 582.619969 81.503716 627.679415 193.193904 662.926512 329.179781 662.926512 365.571606 662.926512 400.226505 660.39763 431.705072 655.837141 436.707585 655.111769 441.627926 654.336812 446.46468 653.506602 454.062661 652.2117 461.450964 650.79496 468.601256 649.256379 535.304252 634.957212 581.658599 610.695525 589.599432 582.619969 590.397056 579.786487 590.877332 576.920421 590.877332 574.020351L590.877332 594.850694C590.877332 623.815961 553.12402 645.859034 494.119594 661.349679 485.474641 663.623548 476.370664 665.74866 466.862915 667.740598 460.887102 668.991579 454.759698 670.187309 448.479285 671.327786 442.999331 672.318088 437.398954 673.241802 431.705072 674.104598 400.209504 678.870514 365.615525 681.565156 329.179781 681.565156 286.156193 681.565156 245.679905 677.823542 209.880279 671.327786 125.395767 655.985898 67.475148 630.728241 67.475148 594.845026L67.475148 750.39893C67.475148 753.298998 67.956839 756.165066 68.753048 758.998548 81.503716 804.057992 193.19957 839.30509 329.179781 839.30509 380.708066 839.30509 428.738417 834.241658 469.231706 825.5032 535.591851 811.179949 581.685517 786.984848 589.605098 758.998548 590.397056 756.165066 590.877332 753.298998 590.877332 750.39893L590.877332 771.223605C590.877332 800.078367 553.434286 822.054853 494.854882 837.534164 480.571301 841.308362 465.036736 844.701457 448.479285 847.706364 412.672575 854.203538 372.196287 857.943733 329.179781 857.943733 286.16186 857.943733 245.685572 854.203538 209.880279 847.706364 125.395767 832.365892 67.480815 807.106819 67.480815 771.223605L67.480815 926.777508C67.480815 929.677577 67.962506 932.543643 68.758715 935.377125 81.503716 980.436571 193.19957 1015.683668 329.179781 1015.683668 465.164242 1015.683668 576.854431 980.436571 589.605098 935.377125 590.401307 932.543643 590.882999 929.677577 590.882999 926.777508L590.882999 861.464335C622.367232 866.029075 657.016466 868.552289 693.413957 868.552289 829.394167 868.552289 941.090021 833.310859 953.835023 788.252831 954.631232 785.419349 955.112924 782.546199 955.112924 779.647546L955.112924 624.099309C955.112924 659.982525 897.197971 685.240182 812.71346 700.580652 776.908166 707.077826 736.431878 710.819439 693.413957 710.819439 656.978214 710.819439 622.378566 708.12338 590.882999 703.358881L590.882999 685.571699C622.367232 690.132188 657.016466 692.66107 693.413957 692.66107 829.394167 692.66107 941.090021 657.41964 953.835023 612.360194 954.631232 609.522462 955.112924 606.654978 955.112924 603.754911L955.112924 448.201006C955.112924 484.084222 897.197971 509.348961 812.71346 524.683766 776.908166 531.18094 736.431878 534.921136 693.413957 534.921136 656.978214 534.921136 622.378566 532.226495 590.882999 527.461994L590.882999 509.674812C622.367232 514.240968 657.022132 516.764183 693.413957 516.764183 829.394167 516.764183 941.090021 481.522753 953.840691 436.463309 954.636899 433.629827 955.118591 430.758093 955.118591 427.858024L955.118591 272.309787C955.107256 308.193001 897.192305 333.450658 812.709209 348.785463L812.709209 348.785463ZM544.185802 430.729758C533.150806 438.748512 516.776115 446.464083 496.831236 453.043427 483.848222 457.327652 469.669478 461.057931 454.571271 464.200262 449.065815 465.346406 443.431436 466.414628 437.69222 467.399263 435.711615 467.742114 433.714011 468.075049 431.705072 468.395233 399.999827 473.475665 365.145167 476.166056 329.174115 476.166056 266.245316 476.166056 206.702529 467.953209 161.516993 453.043427 141.572115 446.464083 125.196006 438.744261 114.161011 430.729758 105.654899 424.554184 102.783165 419.917191 102.30714 418.466448 102.783165 417.011455 105.654899 412.378713 114.161011 406.203139 125.196006 398.184385 141.572115 390.468814 161.516993 383.88947 206.702529 368.979688 266.245316 360.768258 329.174115 360.768258 365.145167 360.768258 399.999827 363.457231 431.705072 368.537664 455.473734 372.344447 477.472888 377.502801 496.831236 383.88947 516.776115 390.468814 533.150806 398.184385 544.185802 406.197471 552.697581 412.378713 555.565065 417.011455 556.041089 418.466448 555.565065 419.921441 552.697581 424.554184 544.185802 430.729758L544.185802 430.729758Z" p-id="1728"></path></svg>